<svg id="Hand-drawn_Icon_Set" data-name="Hand-drawn Icon Set" xmlns="http://www.w3.org/2000/svg" viewBox="0 0 500 500"><defs><style>.cls-1{fill:#231f20;}.cls-2{fill:#fff;}</style></defs><path class="cls-1" d="M419.37,435.28c-19.43,0-41.62-.51-59.44-.92-12.37-.29-23.05-.53-29.5-.53-1.68,0-3.05,0-4.06.05H326a11.19,11.19,0,0,1-8-3.54,11.71,11.71,0,0,1-3.27-8q0-16.19.07-32.38c.18-55.58.36-112.91-4-169.21-11,17.32-22.63,34.27-33.72,50.21-8.51,12.23-17.08,24.26-25.48,35.75-4.05,5.54-7.8,10.61-11.47,15.5-.9,1.19-1.78,2.44-2.68,3.7-2.78,3.93-5.67,8-9.32,11.23a22,22,0,0,1-14.85,6c-7.91,0-16.25-4.39-25.48-13.43-6.61-6.48-13.71-13.65-22.35-22.55-13.59-14-39.85-50.11-57.23-74-2.36-3.25-4.55-6.26-6.5-8.92,1.07,24,1.69,48.56,2.31,72.46,1,41.42,2.15,84.24,5.5,124.93.42,5.16-3.9,10.76-8.9,11.53-8.27,1.27-19.67,1.54-27.79,1.54-14.09,0-27.57-.75-35.49-1.45-6.58-.58-8-10-7.44-47.93,0-2.41.08-4.49.08-6.07-.12-19.76-.69-39.24-1.24-55.68-.66-19.77-.67-39.84-.68-59.25,0-26,0-52.89-1.61-79.25-.52-8.58-.76-16.84-1-24.82-.29-10-.6-20.35-1.45-31.07-.26-3.32-.39-7.17-.52-10.9-.15-4.44-.31-9-.69-12.8-.29-2.85-.57-5.46-.87-8,0-.21-.24-1.95-.27-2.14-.11-.77-.21-1.47-.32-2.17a13.7,13.7,0,0,1,2.2-9.88,9.59,9.59,0,0,1,6.38-4C37.23,78.26,47,78,56.46,77.78c9.67-.24,19.67-.49,26.74-1.7a13.73,13.73,0,0,1,2.24-.18c6,0,10.8,3.59,11.64,8.74,2.2,13.56,2,27.23,1.73,40.45q-.07,3.59-.12,7.17c20.65,23.13,38.12,46.67,55,69.44,17.17,23.15,34.9,47,55.84,70.27,10.14-15.66,20.76-31.22,31.06-46.31,8.6-12.61,17.5-25.65,26-38.6,9.28-14.11,20.11-30.93,30.08-48.74l.91-1.6c1.95-3.41,2.75-4.83,2.77-7.8,0-4.82,0-9.73,0-13.95l-.06-5.75c-.08-6.67-.16-13.57,0-20.38a11.72,11.72,0,0,1,11.24-11.4c2.12-.15,4.49-.22,7.05-.22,13.22,0,32.34,1.9,56.82,5.64,5.38.82,8.76,6.28,8.92,11.07,1.26,36.89,1.6,74.42,1.93,110.71.53,57.84,1.07,117.63,5.36,176.26,1.44.13,10.21.36,19.48.61,51.35,1.35,54.13,1.88,55.94,3.05,6.31,4.1,7.33,11.31,7.54,16.38.41,9.43.49,19.36-3.35,27.92-1.31,2.92-4.51,4.58-18.39,5.57-8,.57-19,.85-33.49.85Z"/><path class="cls-2" d="M85.44,79.9c3.35,0,7.09,1.69,7.69,5.38,2.61,16.1,1.69,32.27,1.55,48.49C138,182,166.22,230.82,210.1,278.51c19.32-30.17,40.19-59.33,59.87-89.25,10.54-16,20.85-32.24,30.23-49,2.62-4.68,4.16-6.77,4.19-11.33s0-9.34,0-14c-.07-8.66-.27-17.33,0-26a7.71,7.71,0,0,1,7.53-7.52c2.09-.15,4.36-.21,6.77-.21,17.22,0,41.48,3.34,56.22,5.6,3.28.5,5.42,4.26,5.52,7.25,3.3,96.42.26,193.14,7.46,289.4a4.86,4.86,0,0,0,3.19,1.38c2.71.45,71.48,1.51,73.88,3.07,4.5,2.92,5.51,8.18,5.73,13.19.37,8.65.52,18.24-3,26.12-1.42,3.16-22.57,4-48.25,4-32.84,0-73.09-1.45-88.93-1.45-1.68,0-3.1,0-4.19.05H326a7.63,7.63,0,0,1-7.31-7.52c0-71.25,1.41-142.87-4.9-213.93-12.62,20.55-26.25,40.5-40,60.26q-12.51,18-25.43,35.68-5.67,7.77-11.44,15.46c-3.57,4.76-7,10.38-11.46,14.34-4,3.58-8.13,5-12.19,5-8.27,0-16.29-6-22.68-12.29-7.54-7.38-14.93-14.9-22.27-22.48-18.65-19.24-62.53-82-71.23-93,3.59,68.85,2.79,141.87,8.44,210.6.25,3-2.52,6.79-5.52,7.25-7,1.08-16.93,1.49-27.18,1.49-12.86,0-26.25-.65-35.14-1.43-5.19-.46-3.76-38.38-3.71-50-.11-18.61-.62-37.22-1.24-55.82-1.55-46.23.47-92.44-2.3-138.61-1.17-19.36-.92-36.64-2.45-56-.56-7.14-.51-16.65-1.22-23.78q-.41-4-.87-8.05c-.05-.41-.24-1.87-.28-2.19-.11-.76-.22-1.52-.34-2.29-.58-3.62.94-8.57,5.26-9.25C45,81.09,69.49,82.49,83.87,80a9,9,0,0,1,1.57-.13m0-8h0a17.61,17.61,0,0,0-2.92.24c-6.78,1.16-16.63,1.41-26.16,1.65s-19.49.48-27,1.68a13.66,13.66,0,0,0-9,5.56A17.55,17.55,0,0,0,17.4,93.89c.11.69.21,1.38.31,2.07,0,.2.07.56.12.94S18,97.83,18,98c.3,2.5.58,5.09.86,7.91.36,3.64.52,8.17.67,12.55.13,3.76.27,7.66.54,11.07.84,10.62,1.13,20.46,1.43,30.87.24,8,.48,16.3,1,24.94,1.58,26.24,1.59,53.07,1.61,79,0,19.44,0,39.54.68,59.38.55,16.4,1.12,35.82,1.24,55.57,0,1.55,0,3.6-.08,6-.12,7.91-.29,18.74.14,28A88.82,88.82,0,0,0,27.35,426c1.4,7.05,4.64,10.85,9.65,11.3,8,.7,21.63,1.46,35.85,1.46,12,0,21.56-.53,28.39-1.58,7-1.08,12.87-8.62,12.28-15.82-3.34-40.57-4.43-83.34-5.49-124.7-.5-19.56-1-39.57-1.76-59.34,17.43,23.95,42.86,58.77,56.32,72.66,8.65,8.92,15.78,16.11,22.42,22.62,10,9.81,19.27,14.58,28.28,14.58a25.85,25.85,0,0,0,17.51-7c4-3.55,7.14-8,9.92-11.9.91-1.28,1.76-2.48,2.62-3.62,3.67-4.89,7.43-10,11.5-15.54,8.42-11.52,17-23.58,25.53-35.83,8.95-12.86,18.26-26.38,27.31-40.24,3.43,52.3,3.27,105.39,3.1,156.94,0,10.62-.06,21.6-.07,32.4a15.78,15.78,0,0,0,4.37,10.74A15.24,15.24,0,0,0,326,437.88h.49c1,0,2.28-.05,3.92-.05,6.4,0,17.06.24,29.4.53,17.85.41,40.06.92,59.53.92,14.62,0,25.67-.28,33.79-.86,12.74-.91,19.25-2.32,21.76-7.92,4.19-9.36,4.13-19.82,3.7-29.73-.15-3.43-.6-13.87-9.36-19.56-2.75-1.79-3.49-2.27-58-3.7-6-.16-12.11-.32-15.85-.45-4-57.36-4.57-115.84-5.09-172.45-.33-36.32-.67-73.87-1.93-110.81-.22-6.34-4.61-13.71-12.31-14.89-24.69-3.78-44-5.69-57.43-5.69-2.65,0-5.12.07-7.32.23a15.65,15.65,0,0,0-15,15.27c-.2,6.9-.12,13.84,0,20.54l.06,5.75c0,4.19.07,9.07,0,13.89,0,1.82-.26,2.36-2.24,5.84-.3.51-.6,1-.93,1.63-9.91,17.69-20.69,34.44-29.93,48.49-8.5,12.93-17.39,25.95-26,38.54-9.35,13.7-19,27.79-28.25,42-19.32-21.87-36-44.31-52.13-66.08-16.67-22.47-33.9-45.67-54.21-68.56,0-1.88.06-3.76.1-5.59.23-13.4.47-27.26-1.79-41.17-1.15-7.13-7.56-12.1-15.58-12.1Z"/></svg>